HIERARCHY
ROOT Hips
{
	OFFSET 0.00000 0.00000 0.00000
	CHANNELS 6 Xposition Yposition Zposition Zrotation Yrotation Xrotation 
	JOINT LHipJoint
	{
		OFFSET 0 0 0
		CHANNELS 3 Zrotation Yrotation Xrotation
		JOINT LeftUpLeg
		{
			OFFSET 1.76014 -1.80163 0.38499
			CHANNELS 3 Zrotation Yrotation Xrotation
			JOINT LeftLeg
			{
				OFFSET 2.46817 -6.78126 0.00000
				CHANNELS 3 Zrotation Yrotation Xrotation
				JOINT LeftFoot
				{
					OFFSET 2.79348 -7.67503 0.00000
					CHANNELS 3 Zrotation Yrotation Xrotation
					JOINT LeftToeBase
					{
						OFFSET 0.09421 -0.25885 1.91403
						CHANNELS 3 Zrotation Yrotation Xrotation
						End Site
						{
							OFFSET 0.00000 -0.00000 0.97975
						}
					}
				}
			}
		}
	}
	JOINT RHipJoint
	{
		OFFSET 0 0 0
		CHANNELS 3 Zrotation Yrotation Xrotation
		JOINT RightUpLeg
		{
			OFFSET -1.77926 -1.80163 0.38499
			CHANNELS 3 Zrotation Yrotation Xrotation
			JOINT RightLeg
			{
				OFFSET -2.51996 -6.92353 0.00000
				CHANNELS 3 Zrotation Yrotation Xrotation
				JOINT RightFoot
				{
					OFFSET -2.76109 -7.58603 0.00000
					CHANNELS 3 Zrotation Yrotation Xrotation
					JOINT RightToeBase
					{
						OFFSET -0.08067 -0.22163 1.86812
						CHANNELS 3 Zrotation Yrotation Xrotation
						End Site
						{
							OFFSET -0.00000 -0.00000 0.95558
						}
					}
				}
			}
		}
	}
	JOINT LowerBack
	{
		OFFSET 0 0 0
		CHANNELS 3 Zrotation Yrotation Xrotation
		JOINT Spine
		{
			OFFSET 0.05537 1.92033 -0.03713
			CHANNELS 3 Zrotation Yrotation Xrotation
			JOINT Spine1
			{
				OFFSET 0.04452 1.90073 0.10860
				CHANNELS 3 Zrotation Yrotation Xrotation
				JOINT Neck
				{
					OFFSET 0 0 0
					CHANNELS 3 Zrotation Yrotation Xrotation
					JOINT Neck1
					{
						OFFSET 0.00903 1.74649 0.02074
						CHANNELS 3 Zrotation Yrotation Xrotation
						JOINT Head
						{
							OFFSET -0.08608 1.67844 -0.12081
							CHANNELS 3 Zrotation Yrotation Xrotation
							End Site
							{
								OFFSET -0.03521 1.83380 -0.05059
							}
						}
					}
				}
				JOINT LeftShoulder
				{
					OFFSET 0 0 0
					CHANNELS 3 Zrotation Yrotation Xrotation
					JOINT LeftArm
					{
						OFFSET 3.28197 0.84325 -0.19106
						CHANNELS 3 Zrotation Yrotation Xrotation
						JOINT LeftForeArm
						{
							OFFSET 5.24318 -0.00000 -0.00000
							CHANNELS 3 Zrotation Yrotation Xrotation
							JOINT LeftHand
							{
								OFFSET 2.98999 -0.00000 0.00000
								CHANNELS 3 Zrotation Yrotation Xrotation
								JOINT LeftFingerBase
								{
									OFFSET 0 0 0
									CHANNELS 3 Zrotation Yrotation Xrotation
									JOINT LeftHandIndex1
									{
										OFFSET 0.72674 -0.00000 0.00000
										CHANNELS 3 Zrotation Yrotation Xrotation
										End Site
										{
											OFFSET 0.58592 -0.00000 0.00000
										}
									}
								}
								JOINT LThumb
								{
									OFFSET 0 0 0
									CHANNELS 3 Zrotation Yrotation Xrotation
									End Site
									{
										OFFSET 0.59487 -0.00000 0.59487
									}
								}
							}
						}
					}
				}
				JOINT RightShoulder
				{
					OFFSET 0 0 0
					CHANNELS 3 Zrotation Yrotation Xrotation
					JOINT RightArm
					{
						OFFSET -3.30963 0.78377 0.14264
						CHANNELS 3 Zrotation Yrotation Xrotation
						JOINT RightForeArm
						{
							OFFSET -5.37045 -0.00000 0.00000
							CHANNELS 3 Zrotation Yrotation Xrotation
							JOINT RightHand
							{
								OFFSET -2.92792 -0.00000 0.00000
								CHANNELS 3 Zrotation Yrotation Xrotation
								JOINT RightFingerBase
								{
									OFFSET 0 0 0
									CHANNELS 3 Zrotation Yrotation Xrotation
									JOINT RightHandIndex1
									{
										OFFSET -0.78450 -0.00000 0.00000
										CHANNELS 3 Zrotation Yrotation Xrotation
										End Site
										{
											OFFSET -0.63248 -0.00000 0.00000
										}
									}
								}
								JOINT RThumb
								{
									OFFSET 0 0 0
									CHANNELS 3 Zrotation Yrotation Xrotation
									End Site
									{
										OFFSET -0.64214 -0.00000 0.64214
									}
								}
							}
						}
					}
				}
			}
		}
	}
}
MOTION
Frames: 9
Frame Time: .0083333
0.8168 16.8286 -0.6999 -1.9375 -8.2082 0.7100 0.0000 0.0000 0.0000 -15.2678 1.4077 -29.5976 7.9145 16.0560 52.2540 1.1466 -0.4249 -20.1122 0.8939 -6.0262 -16.8603 0.0000 0.0000 0.0000 16.9347 4.0653 -30.9360 -6.9041 -15.2506 48.5107 -0.4849 4.4403 -12.3894 -0.2486 3.2080 -8.8585 3.8477 -0.1025 8.7370 1.7169 -0.3990 16.7430 -0.2577 0.0931 13.4551 2.8559 -1.0276 14.5848 -6.0225 -1.5197 -8.1534 -2.2184 -0.4293 -4.8941 -0.0000 -0.0000 0.0000 -50.8367 -70.9942 35.2477 16.6820 -26.4366 -3.9447 -0.0000 -0.0000 6.9364 6.2938 24.8647 2.6552 -7.1250 0.0000 -0.0000 -24.0232 53.3256 -5.1536 -0.0000 -0.0000 0.0000 53.6197 66.9617 24.7039 -18.7565 29.1150 -4.9118 0.0000 0.0000 29.1664 -4.5349 8.3843 -0.6626 7.1250 -0.0000 -0.0000 16.0355 -21.6718 9.3444
0.8190 16.8311 -0.6969 -1.9761 -8.2074 0.7552 0.0000 0.0000 0.0000 -15.2366 1.3721 -29.6016 7.9028 16.0473 52.2117 1.1490 -0.4416 -20.1278 0.8834 -5.9915 -16.7598 0.0000 0.0000 0.0000 16.9732 4.0512 -30.9539 -6.8949 -15.2427 48.4757 -0.4849 4.4060 -12.3901 -0.2692 3.3378 -9.2206 3.9144 -0.1077 8.8010 1.7401 -0.4014 16.6853 -0.2703 0.0967 13.3443 2.9599 -1.0730 14.3142 -6.1571 -1.5666 -7.8576 -2.2719 -0.4545 -4.7626 0.0000 -0.0000 0.0000 -51.0407 -71.0639 35.1311 16.6376 -26.3776 -3.9250 -0.0000 -0.0000 7.0223 6.4034 25.0401 2.7195 -7.1250 0.0000 -0.0000 -24.0241 53.5048 -5.2623 0.0000 -0.0000 0.0000 53.4655 66.9600 24.5807 -18.7801 29.1445 -4.9233 0.0000 0.0000 29.2603 -4.5445 8.3182 -0.6588 7.1250 -0.0000 -0.0000 16.0355 -21.7353 9.3202
0.8222 16.8324 -0.6958 -1.9380 -8.1739 0.7874 0.0000 0.0000 0.0000 -15.2971 1.3060 -29.6028 7.8941 16.0408 52.1805 1.1486 -0.3901 -20.1408 0.8966 -6.0350 -16.8859 0.0000 0.0000 0.0000 16.9215 4.0118 -30.9908 -6.8880 -15.2369 48.4496 -0.4866 4.3830 -12.4117 -0.3087 3.5720 -9.8757 3.9198 -0.1098 8.8835 1.7603 -0.3981 16.6252 -0.2522 0.0957 13.2187 2.9874 -1.1095 14.2253 -6.2182 -1.6127 -7.7312 -2.2910 -0.4769 -4.7120 0.0000 0.0000 0.0000 -51.4602 -71.1045 35.1626 16.6430 -26.3848 -3.9274 -0.0000 -0.0000 7.1600 6.5617 25.0617 2.7895 -7.1250 0.0000 -0.0000 -23.8857 53.5529 -5.2580 0.0000 0.0000 0.0000 53.0684 66.9158 24.4081 -18.8389 29.2180 -4.9520 0.0000 0.0000 29.1619 -4.6037 8.2402 -0.6612 7.1250 -0.0000 -0.0000 16.0018 -21.8095 9.2707
0.8249 16.8341 -0.6936 -1.9078 -8.1907 0.8591 0.0000 0.0000 0.0000 -15.3485 1.2670 -29.6561 7.8912 16.0386 52.1698 1.1480 -0.3259 -20.1563 0.8968 -6.0355 -16.8876 0.0000 0.0000 0.0000 16.8689 4.0436 -31.0578 -6.8799 -15.2299 48.4185 -0.4839 4.3962 -12.3760 -0.2838 3.4264 -9.4681 3.9500 -0.0828 8.8593 1.7784 -0.3632 16.5978 -0.2485 0.1148 13.2005 2.9180 -1.1044 14.4415 -6.1724 -1.6200 -7.9293 -2.2659 -0.4753 -4.8080 -0.0000 -0.0000 0.0000 -51.7104 -71.1890 35.1247 16.6827 -26.4376 -3.9450 -0.0000 -0.0000 7.1921 6.6338 24.9351 2.8071 -7.1250 0.0000 -0.0000 -23.7406 53.4504 -5.1619 -0.0000 -0.0000 0.0000 52.5786 66.8890 24.0361 -18.8999 29.2941 -4.9818 0.0000 0.0000 29.1943 -4.7362 8.2292 -0.6794 7.1250 -0.0000 -0.0000 15.9096 -21.8180 9.2098
0.8267 16.8355 -0.6914 -1.9748 -8.2372 0.9034 0.0000 0.0000 0.0000 -15.2865 1.2891 -29.6961 7.8957 16.0420 52.1862 1.1477 -0.2485 -20.1787 0.9198 -6.1103 -17.1049 0.0000 0.0000 0.0000 16.9368 4.0975 -31.0626 -6.8686 -15.2202 48.3755 -0.4822 4.3744 -12.3545 -0.2684 3.3325 -9.2058 4.0781 -0.0323 8.8635 1.8158 -0.2964 16.5704 -0.2768 0.1598 13.1687 2.8300 -1.0916 14.9198 -6.0444 -1.6181 -8.3662 -2.2141 -0.4671 -5.0198 0.0000 -0.0000 0.0000 -52.0680 -71.3588 35.2404 16.6519 -26.3967 -3.9313 -0.0000 -0.0000 7.2981 6.6487 24.7284 2.7916 -7.1250 0.0000 -0.0000 -23.6033 53.2644 -5.0188 0.0000 -0.0000 0.0000 52.0533 66.7941 23.5907 -18.9678 29.3786 -5.0150 0.0000 0.0000 29.2558 -4.8099 8.3458 -0.6998 7.1250 -0.0000 -0.0000 15.8459 -21.7042 9.2128
0.8276 16.8364 -0.6887 -2.1062 -8.2323 0.9549 0.0000 0.0000 0.0000 -15.1411 1.2817 -29.7483 7.9042 16.0483 52.2169 1.1485 -0.2953 -20.1713 0.9007 -6.0485 -16.9252 0.0000 0.0000 0.0000 17.0809 4.1199 -31.0507 -6.8534 -15.2072 48.3175 -0.4809 4.3371 -12.3385 -0.2713 3.3505 -9.2562 4.2819 -0.0283 8.9997 1.8102 -0.2741 16.4435 -0.3981 0.1929 12.9319 2.9120 -1.0881 15.3039 -5.9782 -1.5919 -8.5761 -2.2104 -0.4530 -5.1465 -0.0000 0.0000 0.0000 -52.4299 -71.3415 35.4358 16.6382 -26.3784 -3.9253 -0.0000 -0.0000 7.4569 6.5777 24.6205 2.7503 -7.1250 0.0000 -0.0000 -23.6074 53.1533 -4.9537 -0.0000 0.0000 0.0000 52.1290 66.5867 23.6354 -19.0780 29.5155 -5.0692 0.0000 0.0000 29.3429 -4.8703 8.4432 -0.7168 7.1250 -0.0000 -0.0000 15.7937 -21.6091 9.2156
0.8283 16.8369 -0.6874 -2.2025 -8.2453 0.9936 0.0000 0.0000 0.0000 -15.0328 1.2967 -29.7941 7.9097 16.0524 52.2367 1.1518 -0.3312 -20.1885 0.8941 -6.0269 -16.8624 0.0000 0.0000 0.0000 17.1899 4.1680 -31.0332 -6.8375 -15.1935 48.2571 -0.4817 4.2993 -12.3496 -0.2835 3.4246 -9.4632 4.4250 -0.0484 9.2565 1.7679 -0.2698 16.2441 -0.5286 0.2092 12.5314 3.0731 -1.0857 15.5441 -5.9780 -1.5472 -8.5060 -2.2405 -0.4337 -5.1627 0.0000 -0.0000 0.0000 -52.5896 -71.0828 35.7341 16.7302 -26.5008 -3.9662 -0.0000 -0.0000 7.3387 6.6558 24.7469 2.7966 -7.1250 0.0000 -0.0000 -23.6076 53.2826 -5.0306 0.0000 -0.0000 0.0000 52.6502 66.3731 24.0344 -19.1669 29.6255 -5.1131 0.0000 0.0000 29.5051 -4.9361 8.5773 -0.7380 7.1250 -0.0000 -0.0000 15.7342 -21.4783 9.2270
0.8291 16.8378 -0.6846 -2.2350 -8.2393 1.0078 0.0000 0.0000 0.0000 -14.9930 1.2920 -29.7949 7.9101 16.0528 52.2384 1.1529 -0.3831 -20.1813 0.8755 -5.9653 -16.6838 0.0000 0.0000 0.0000 17.2307 4.1668 -31.0108 -6.8237 -15.1817 48.2045 -0.4824 4.2470 -12.3581 -0.2822 3.4168 -9.4415 4.4708 -0.0578 9.3805 1.7613 -0.2678 16.1361 -0.5638 0.2125 12.3242 3.1138 -1.0786 15.6555 -5.9443 -1.5188 -8.4238 -2.2387 -0.4227 -5.1536 0.0000 -0.0000 0.0000 -52.7348 -70.8967 35.8991 16.8860 -26.7073 -4.0360 -0.0000 -0.0000 7.2859 6.8098 24.8276 2.8705 -7.1250 0.0000 -0.0000 -23.5081 53.3835 -5.0672 0.0000 -0.0000 0.0000 52.8961 66.2895 24.1197 -19.2211 29.6924 -5.1399 0.0000 0.0000 29.6569 -4.8360 8.7059 -0.7337 7.1250 -0.0000 -0.0000 15.7919 -21.3561 9.3092
0.8312 16.8408 -0.6797 -2.2103 -8.2575 0.9686 0.0000 0.0000 0.0000 -15.0347 1.3346 -29.7324 7.9046 16.0487 52.2184 1.1527 -0.3686 -20.1843 0.8926 -6.0220 -16.8483 0.0000 0.0000 0.0000 17.2010 4.1620 -30.9285 -6.8149 -15.1741 48.1709 -0.4842 4.2391 -12.3819 -0.2832 3.4224 -9.4571 4.4545 -0.0537 9.4184 1.7673 -0.2608 16.1319 -0.5484 0.2130 12.2965 3.0690 -1.0511 15.6123 -5.8819 -1.4829 -8.3907 -2.2147 -0.4091 -5.1336 -0.0000 0.0000 0.0000 -52.6936 -70.8269 35.8030 17.0431 -26.9145 -4.1068 -0.0000 -0.0000 7.2512 7.0457 24.7478 2.9618 -7.1250 0.0000 -0.0000 -23.2352 53.3526 -4.9851 -0.0000 0.0000 0.0000 53.1071 66.3499 23.9904 -19.2244 29.6966 -5.1416 0.0000 0.0000 30.0844 -4.8966 8.8555 -0.7556 7.1250 -0.0000 -0.0000 15.7349 -21.2104 9.3272
